<?xml version="1.0" standalone="no"?><!DOCTYPE svg PUBLIC "-//W3C//DTD SVG 1.1//EN" "http://www.w3.org/Graphics/SVG/1.1/DTD/svg11.dtd"><svg t="1746888073159" class="icon" viewBox="0 0 1024 1024" version="1.1" xmlns="http://www.w3.org/2000/svg" p-id="6892" xmlns:xlink="http://www.w3.org/1999/xlink" width="200" height="200"><path d="M747.25 908c52.52 14.76 119.91-20.55 119.91-75.18s25.09-54.56 25.09-109.11-42.09-54.55-42.09-109.09 7.09-54.55 7.09-109.1-19.09-54.55-19.09-109c0-35.3 3.89-73.17-6.4-105.11-10.74-33-33.7-52.42-53.65-79.82-20.23-27.77-27.15-69.81-54.91-90-27.41-20-69.45-13.66-102.44-24.39-31.84-10.38-62-34.45-97.32-34.45s-65.35 24.07-97.19 34.45c-33 10.73-75 4.43-102.53 24.39-27.68 20.22-34.6 62.26-54.82 90-20 27.4-39.92 46.83-50.66 79.91-10.38 31.85-9.38 69.72-9.38 105 0 54.55-25.1 54.55-25.1 109.1s13.1 54.54 13.1 109.19-42.1 54.54-42.1 109 25.1 54.54 25.1 109.09 66.63 86.87 119.9 75.1C422 881 612 870 747.25 908z" fill="#E88A95" p-id="6893"></path><path d="M724.56 929.77c0-98.28-104.5-178-202.68-178.37-98.19 0.39-207.69 80.09-207.69 178.37z" fill="#FFD1CA" p-id="6894"></path><path d="M324.94 876.85a138.19 138.19 0 0 0-10.75 52.92h410.37c0-58-36.39-109.53-86.41-142.1" fill="#E83F63" p-id="6895"></path><path d="M710.58 452.22c-20.91 30.46-18.66 68.33 5 84.59s59.84 4.75 80.74-25.71 18.66-68.33-5-84.58-59.83-4.75-80.74 25.7z" fill="#FFD1CA" p-id="6896"></path><path d="M746.93 521.4a6 6 0 0 1-6-5.35c-3.34-30.29 12.46-44.71 19.4-49.5 9.59-6.62 20.54-8.82 27.89-5.62a6 6 0 1 1-4.8 11c-2.87-1.25-9.91 0.11-16.27 4.5-5.15 3.57-16.88 14.44-14.25 38.31a6 6 0 0 1-5.3 6.62c-0.23 0.02-0.45 0.04-0.67 0.04z" fill="#FFBAB3" p-id="6897"></path><path d="M341.34 452.22c20.91 30.46 18.66 68.33-5 84.59s-59.83 4.75-80.74-25.71-18.66-68.33 5-84.58 59.84-4.75 80.74 25.7z" fill="#FFD1CA" p-id="6898"></path><path d="M305 521.4h-0.66a6 6 0 0 1-5.31-6.62c2.63-23.87-9.11-34.74-14.29-38.31-6.35-4.39-13.4-5.75-16.27-4.5a6 6 0 1 1-4.79-11c7.34-3.2 18.29-1 27.88 5.62 6.95 4.79 22.74 19.21 19.4 49.5a6 6 0 0 1-5.96 5.31z" fill="#FFBAB3" p-id="6899"></path><path d="M565.46 761.4s-17.9 15-45.43 15c-30 0-47.93-15-47.93-15v-87.86h93.36z" fill="#FFD1CA" p-id="6900"></path><path d="M752.19 501.64c0 110.8-89.83 200.63-200.64 200.63h-51.18c-110.81 0-200.64-89.83-200.64-200.63V400.17c0-110.8 89.83-200.63 200.64-200.63h51.18c110.81 0 200.64 89.83 200.64 200.63z" fill="#FFE6E1" p-id="6901"></path><path d="M429.78 550.11a43.95 43.95 0 1 1-43.95-43.95 44 44 0 0 1 43.95 43.95zM710 550.11a44 44 0 1 1-43.95-43.95A44 44 0 0 1 710 550.11z" fill="#F47A8F" opacity=".4" p-id="6902"></path><path d="M527.76 561h-1.12c-14.76-0.63-24.05-12.84-25.06-14.23l-1.91-2.63v-116.4a10 10 0 1 1 20 0v109.31c1.92 1.79 4.85 3.85 7.89 4 4.08 0.17 8.16-3.56 10.86-6.68a10 10 0 0 1 15.12 13.09c-9.6 11.04-19.13 13.54-25.78 13.54z" fill="#F47A8F" p-id="6903"></path><path d="M615.73 450.73c0 16.94 12.09 30.67 27 30.67s27-13.73 27-30.67-12.08-30.66-27-30.66-27 13.73-27 30.66zM381.89 450.73c0 16.94 12.08 30.67 27 30.67s27-13.73 27-30.67-12.08-30.66-27-30.66-27 13.73-27 30.66zM436.4 391.43a5.9 5.9 0 0 1-3.06-0.85c-1.13-0.66-27.16-15.58-61.48-0.62a6 6 0 0 1-4.79-11c40.2-17.53 71.13 0.55 72.43 1.32a6 6 0 0 1-3.1 11.15zM682 391.43a5.9 5.9 0 0 1-3.06-0.85c-1.13-0.66-27.16-15.58-61.48-0.62a6 6 0 0 1-4.79-11c40.2-17.53 71.13 0.55 72.43 1.32a6 6 0 0 1-3.1 11.15z" fill="#31296B" p-id="6904"></path><path d="M531.17 630.83c-30.53 0-50.87-11.89-52.1-12.63a10 10 0 0 1 10.25-17.2c1.55 0.92 37 21.14 83.7 0.78a10 10 0 1 1 8 18.33 124 124 0 0 1-49.85 10.72z" fill="#E83F63" p-id="6905"></path><path d="M662.21 438.37a6 6 0 0 1-0.27-12c0.2 0 13.57-1 14.88-7.9a6 6 0 1 1 11.79 2.23c-2.5 13.19-17.61 17.31-26.15 17.66zM389.72 438.37h-0.26c-8.54-0.35-23.65-4.47-26.14-17.66a6 6 0 0 1 11.79-2.23c1.32 7 14.72 7.9 14.85 7.9a6 6 0 0 1-0.24 12z" fill="#31296B" p-id="6906"></path><path d="M300 420a58.8 58.8 0 0 1 10-27c8-11.58 19.71-23 25-23 20 0 26.61 17.1 61 12 18.08-2.66 31.09-24 50.64-35.09 16.32-9.15 45.52 2.28 59.32-15.79 11-14.47 10-42.07 17.49-63.91 7.61 21.84 8.71 40.44 19.79 54.91 13.73 18.07 43 15.64 59.33 24.79C622.13 358 634.4 373.07 652 378c25 7 32.18 1.9 62.21-4.53A79 79 0 0 1 752 420c36-48.83 33.29-84.85 33.29-102.46 0-29.37-33.36-73.06-50-95.86-16.83-23.1-22.58-58.08-45.69-74.9-22.8-16.61-57.78-11.37-85.22-20.3-26.5-8.63-51.58-33.65-81-33.65s-54.37 25-80.87 33.65c-27.44 8.93-62.43 3.69-85.3 20.3-23 16.82-28.78 51.8-45.61 74.9-16.6 22.8-49.95 66.49-49.95 95.86C261.72 362.93 281.33 420 300 420z" fill="#E88A95" p-id="6907"></path><path d="M690.67 207.54a8 8 0 0 1-8-7.62c-0.44-9.39-3.18-15.79-8.14-19-8.76-5.71-23.86-1.89-28.94 0.07a8 8 0 0 1-5.81-14.91c1.06-0.41 26-9.94 43.43 1.4 9.55 6.2 14.75 16.87 15.44 31.72a8 8 0 0 1-7.61 8.36zM678 351.68a63.28 63.28 0 0 1-21.79-3.88c-22.18-8.1-38.15-28.08-41.67-52.13a8 8 0 1 1 15.83-2.32c2.67 18.23 14.68 33.34 31.33 39.42 18.07 6.6 38.27 1.67 55.42-13.52a8 8 0 1 1 10.61 12c-15.17 13.43-32.51 20.43-49.73 20.43zM414.26 175.78c-13.08 0-26-1.86-37.59-6.16a8 8 0 0 1 5.58-15c28.58 10.63 68.58 3.41 91.7-8.78 11.75-6.19 19.46-13.66 21.18-20.51a8 8 0 1 1 15.52 3.88c-2.9 11.59-13 22.24-29.24 30.79-17.51 9.23-42.59 15.78-67.15 15.78zM371.9 343.49c-19.25 0-39.09-9.6-50-18.11a8 8 0 0 1 9.82-12.63c11.59 9 36.24 19.22 52.37 12.53 9.35-3.87 15-13.36 16.87-28.19a8 8 0 0 1 15.88 2c-3.25 26.12-16.27 36.71-26.62 41a47.51 47.51 0 0 1-18.32 3.4zM808.76 871.11h-0.67a8 8 0 0 1-7.31-8.63c1.43-17.47-0.2-26.17-1.92-35.38-1.84-9.84-3.74-20-2.13-39.62s5.16-29.36 8.58-38.77c3.21-8.81 6.23-17.13 7.67-34.61s-0.19-26.19-1.91-35.4c-1.84-9.84-3.74-20-2.13-39.65a8 8 0 0 1 15.95 1.31c-1.44 17.49 0.19 26.19 1.91 35.4 1.84 9.85 3.74 20 2.13 39.65s-5.16 29.36-8.58 38.77c-3.21 8.81-6.24 17.13-7.67 34.61s0.19 26.16 1.91 35.37c1.84 9.84 3.74 20 2.13 39.63a8 8 0 0 1-7.96 7.32zM735 840.27h-0.66a8 8 0 0 1-7.32-8.62 59.8 59.8 0 0 0-1-18.94 85.89 85.89 0 0 1 3.78-45.87 69.8 69.8 0 0 0 3.08-37.47 76 76 0 0 1-1.24-23.2 8 8 0 1 1 15.94 1.31 60.17 60.17 0 0 0 1 18.95 85.92 85.92 0 0 1-3.78 45.88 70.06 70.06 0 0 0-3.08 37.46 76.1 76.1 0 0 1 1.28 23.16 8 8 0 0 1-8 7.34zM231.91 821.67a7.37 7.37 0 0 1-1-0.07 8 8 0 0 1-6.9-9c2.26-17.38 1.05-26.14-0.24-35.42-1.37-9.92-2.79-20.17-0.26-39.68s6.54-29.08 10.41-38.32c3.61-8.65 7-16.82 9.29-34.21s1.05-26.17-0.23-35.45c-1.38-9.92-2.8-20.18-0.26-39.71a8 8 0 1 1 15.87 2.07c-2.26 17.39-1.05 26.16 0.24 35.44 1.37 9.93 2.79 20.19 0.25 39.71s-6.54 29.08-10.4 38.32c-3.62 8.65-7 16.81-9.3 34.21s-1.05 26.14 0.24 35.42c1.38 9.92 2.8 20.17 0.26 39.69a8 8 0 0 1-7.97 7zM300.22 859.45a7.37 7.37 0 0 1-1-0.07 8 8 0 0 1-6.9-9 76.9 76.9 0 0 0-0.06-23.23 104.33 104.33 0 0 1 7-53.8 88.37 88.37 0 0 0 5.94-45.69 91.5 91.5 0 0 1-0.06-27.37 8 8 0 0 1 15.86 2.1 77 77 0 0 0 0.06 23.24 104.65 104.65 0 0 1-7 53.82 88.35 88.35 0 0 0-5.94 45.68 91.35 91.35 0 0 1 0.06 27.35 8 8 0 0 1-7.96 6.97z" fill="#C64A7C" p-id="6908"></path></svg>