<?xml version="1.0" standalone="no"?><!DOCTYPE svg PUBLIC "-//W3C//DTD SVG 1.1//EN" "http://www.w3.org/Graphics/SVG/1.1/DTD/svg11.dtd"><svg t="1746894411772" class="icon" viewBox="0 0 1024 1024" version="1.1" xmlns="http://www.w3.org/2000/svg" p-id="18912" xmlns:xlink="http://www.w3.org/1999/xlink" width="200" height="200"><path d="M623.496945 276.561745a33.930875 33.930875 0 0 1 29.546805-10.983009 31.533336 31.533336 0 0 0-46.352406-1.187352 173.056594 173.056594 0 0 1 15.367078 13.312046l0.479508 0.228336zM423.38242 276.424742a167.645007 167.645007 0 0 1 98.504571-31.716005c17.673282 0 34.684387 2.740044 82.498149 24.683227a165.795478 165.795478 0 0 0-199.520849-3.562057 34.022209 34.022209 0 0 1 18.472461 10.526334zM624.181956 461.012353l-17.35361-17.35361-1.347188 1.347188 16.006422 16.006422h2.694376z" fill="#F5AFCD" p-id="18913"></path><path d="M1011.167462 512c0-275.534228-223.382063-498.916291-498.916291-498.916291S13.334879 236.465772 13.334879 512A498.528118 498.528118 0 0 0 246.010257 933.898229v-6.165098c0-49.982964 33.428533-55.006377 33.771039-55.052045H433.840253v-110.286759a172.074745 172.074745 0 0 1-102.614636-141.112251 32.675021 32.675021 0 0 1-30.802658-32.560852V536.591892a32.697855 32.697855 0 0 1 30.003478-32.515185v-103.505151a171.252732 171.252732 0 0 1 6.621772-46.649244 36.899255 36.899255 0 0 1-20.778664-33.268697v-0.730679C205.160772 333.371984 182.509744 358.489051 182.509744 358.489051v-22.057351c-13.266378 6.096597-17.53628 10.572002-17.627614 10.663336a2.671543 2.671543 0 0 1-4.56674-1.803862V237.242117a2.671543 2.671543 0 0 1 1.347189-2.283369c53.750524-30.756991 107.318378-24.614726 142.96178-14.065558a233.657227 233.657227 0 0 1 63.774517 29.797975 36.670918 36.670918 0 0 1 35.780404 9.133479 171.138563 171.138563 0 0 1 198.242162 1.370022 36.739419 36.739419 0 0 1 36.922089-10.343665 233.657227 233.657227 0 0 1 63.774517-29.797975C738.578781 210.481024 792.329305 204.361593 845.988494 235.187085a2.671543 2.671543 0 0 1 1.347188 2.283369v4.56674a173.924274 173.924274 0 0 1 16.965437 8.516969V358.489051s-4.224234-4.56674-17.97012-11.074343a2.671543 2.671543 0 0 1-3.653391-0.296838 26.190251 26.190251 0 0 0-3.584891-2.854212c-22.491192-9.133479-63.386344-20.550328-135.198323-27.126433a33.65687 33.65687 0 0 1 4.38407 16.7371 34.387548 34.387548 0 0 1-21.258172 31.784507l-2.808545 0.776346a167.667841 167.667841 0 0 1 6.850109 47.151586v63.180841h-16.988271v27.103599A32.675021 32.675021 0 0 1 703.917228 536.591892v52.197833a32.675021 32.675021 0 0 1-30.779824 32.560853 172.074745 172.074745 0 0 1-102.614637 141.11225v110.286759h154.173126a38.314944 38.314944 0 0 1 24.249386 17.148107c8.448468 3.288052 24.865897 13.837221 26.372921 46.078402a498.550952 498.550952 0 0 0 235.849262-423.976096z" fill="#F5AFCD" p-id="18914"></path><path d="M841.969763 239.753824v-0.844847C790.38844 210.070017 738.921286 216.006779 704.739241 226.053606a236.602774 236.602774 0 0 0-59.367614 27.057931 37.218927 37.218927 0 0 1 14.887571 13.106543c9.430317-6.439103 92.750479-61.559649 181.710565-26.464256zM584.976497 624.912634a60.600633 60.600633 0 0 1-60.463631-57.860589h-44.571377a60.532132 60.532132 0 0 1-121.018597-2.032199l-23.062035-46.968916v86.768051a166.343487 166.343487 0 1 0 332.686973 0v-86.768051l-23.0392 46.991749a60.600633 60.600633 0 0 1-60.532133 59.869955z m-96.632208-6.233599a2.671543 2.671543 0 0 1 2.671543-2.671543h26.715426a2.671543 2.671543 0 1 1 0 5.365919H490.924497a2.671543 2.671543 0 0 1-2.580208-2.694376zM569.951924 678.160817L536.591892 711.726352a2.694376 2.694376 0 0 1-1.895197 0.776346h-30.32315a2.671543 2.671543 0 1 1 0-5.365919h29.135798l32.652188-32.652187a2.671543 2.671543 0 0 1 3.790393 3.790394zM587.46537 888.482005h153.876288a30.871159 30.871159 0 0 0-17.193774-10.480667h-154.880971l-58.317263 86.220042 13.060875 18.107122zM352.871962 413.700932a167.736342 167.736342 0 0 1 6.987111-48.201935 34.410382 34.410382 0 0 1-16.508763-14.248228 165.795478 165.795478 0 0 0-7.466619 49.320787v64.756366h16.988271z" fill="#F5AFCD" p-id="18915"></path><path d="M419.477858 503.84837A60.600633 60.600633 0 0 1 479.941489 561.70896h44.571377a60.532132 60.532132 0 0 1 120.17375-7.192615l23.884048-48.612942v-29.02163h-28.542122l-10.503501-10.503501h-9.133479a2.671543 2.671543 0 0 1-1.895197-0.776345l-16.782767-16.782768-32.332516 32.401017h-216.463453v-10.503501h-16.988271v35.209561l23.861214 48.590109a60.623467 60.623467 0 0 1 59.687286-50.667975zM342.939303 317.04589c-7.398118 0.685011-14.476564 1.415689-21.235338 2.28337v1.370022a31.533336 31.533336 0 0 0 16.942603 28.016947c0.479508-1.529858 1.027516-3.059715 1.552692-4.56674a34.250546 34.250546 0 0 1-1.575525-10.275164 33.65687 33.65687 0 0 1 4.315568-16.828435zM396.82683 265.16773c0.936182-0.730678 1.84953-1.48419 2.808544-2.28337a31.419168 31.419168 0 0 0-30.026312-7.146948 173.536101 173.536101 0 0 1 17.787451 10.914508 34.250546 34.250546 0 0 1 9.430317-1.48419zM507.61593 959.586139l57.540918-85.055523v-109.967087a171.047228 171.047228 0 0 1-125.859341 0V874.530616l10.115328 14.01989h6.850109z m25.93908-163.808946a2.671543 2.671543 0 1 1 5.365919 0v79.552602a2.671543 2.671543 0 0 1-5.365919 0zM181.025554 256.468091a2.671543 2.671543 0 0 1 0.913348-3.676226l0.593676-0.342505v-2.055033c66.720064-38.200776 133.417295-19.728315 171.823574-2.28337a239.753824 239.753824 0 0 0-51.535655-22.285688c-34.250546-10.138162-85.672033-15.983588-137.253356 12.855371v100.787941a100.650939 100.650939 0 0 1 16.942603-9.133479v-72.725326a2.648709 2.648709 0 0 1-1.48419-1.141685zM268.31878 940.862507c0-48.201936 31.464835-52.380502 31.464835-52.380502h143.053115l-7.557954-10.480667h-154.949471c-2.511707 0.411007-28.953128 5.822593-28.953129 49.708959v9.590153q8.357133 5.137582 16.942604 9.955493z" fill="#F5AFCD" p-id="18916"></path><path d="M584.976497 619.546715A55.166213 55.166213 0 1 0 529.741783 564.380502a55.234714 55.234714 0 0 0 55.234714 55.166213zM559.42559 545.908041a2.671543 2.671543 0 0 1 5.365919 0v20.230656a20.25349 20.25349 0 1 0 40.529813 0v-20.230656a2.671543 2.671543 0 0 1 5.365919 0v20.230656a25.619409 25.619409 0 1 1-51.261651 0zM419.477858 509.191455a55.166213 55.166213 0 1 0 55.166213 55.166213A55.234714 55.234714 0 0 0 419.477858 509.191455z m25.619408 56.924408a25.642242 25.642242 0 0 1-51.261651 0v-20.230656a2.671543 2.671543 0 0 1 5.365919 0v20.230656a20.276323 20.276323 0 0 0 40.552647 0v-20.230656a2.671543 2.671543 0 0 1 5.365919 0zM698.551309 588.69839V536.591892a27.400437 27.400437 0 0 0-24.614726-27.1721v95.444856c0 3.699059-0.159836 7.375284-0.388173 11.005842a27.400437 27.400437 0 0 0 25.002899-27.1721zM305.971547 536.591892v52.197833a27.400437 27.400437 0 0 0 25.117067 27.194934c-0.228337-3.653392-0.388173-7.306783-0.388172-11.005843v-95.627525A27.400437 27.400437 0 0 0 305.971547 536.591892z" fill="#F5AFCD" p-id="18917"></path><path d="M268.31878 940.862507v6.416269a499.372965 499.372965 0 0 0 484.782232 1.735361v-21.281006c0-20.047986-5.525755-31.967177-11.759354-39.251126h-153.876288l-63.432011 93.846497-13.060875-18.107122-4.338403 6.439103a2.694376 2.694376 0 0 1-2.28337 1.187352 2.671543 2.671543 0 0 1-2.283369-1.118851l-59.367614-82.201312h-142.916113s-31.464835 4.132899-31.464835 52.334835zM748.945279 889.897694c5.388753 8.197297 9.544486 20.207822 9.544486 37.812603v18.266958q8.516969-4.840744 16.828435-10.023993c-1.552691-32.218347-17.947286-42.744682-26.372921-46.055568z" fill="#AF6759" p-id="18918"></path><path d="M507.61593 959.586139l-51.352986-71.104134h-6.827275l54.869375 75.990546 3.310886-4.886412z" fill="#AF6759" p-id="18919"></path><path d="M652.929581 306.97623a167.462338 167.462338 0 0 1 22.833698 37.013423 31.647505 31.647505 0 0 0-36.054409-51.307318l1.598359 1.552692c4.087232 4.041564 7.946127 8.288632 11.622352 12.741203z" fill="#EECF92" p-id="18920"></path><path d="M696.222272 307.980912l-7.580788-0.753512a36.922089 36.922089 0 0 1-10.480667 41.945503 165.886813 165.886813 0 0 1 6.096597 17.399277l2.808545-0.776345a34.387548 34.387548 0 0 0 21.258172-31.784507 33.65687 33.65687 0 0 0-4.384069-16.737101 34.250546 34.250546 0 0 0-7.71779-9.293315zM623.496945 276.561745l-0.981849 1.370021q6.850109 5.091915 13.175044 10.868841a36.533916 36.533916 0 0 1 25.117067-4.38407 31.464835 31.464835 0 0 0-7.831958-18.837801 33.930875 33.930875 0 0 0-29.501138 10.983009zM683.18423 297.797083a34.250546 34.250546 0 0 0-22.148686-30.231815 36.716586 36.716586 0 0 1 5.228917 18.266958 37.127592 37.127592 0 0 1 16.919769 11.964857zM359.859073 365.498997a167.759176 167.759176 0 0 1 32.378183-60.166793 165.681309 165.681309 0 0 1 31.12233-28.907462 34.022209 34.022209 0 0 0-18.472461-10.526334 166.98283 166.98283 0 0 0-61.468314 85.398029 34.410382 34.410382 0 0 0 16.440262 14.20256zM396.82683 265.16773a34.067877 34.067877 0 0 0-30.482987 20.824332 36.739419 36.739419 0 0 1 5.754092 2.762877 173.147928 173.147928 0 0 1 24.728895-23.587209zM368.604379 292.910672a31.3735 31.3735 0 0 0-3.950229-1.849529 34.410382 34.410382 0 0 0-1.027517 8.357133q2.397538-3.310886 4.977746-6.507604zM342.939303 317.04589a33.65687 33.65687 0 0 0-4.38407 16.737101 34.250546 34.250546 0 0 0 1.575526 10.275164 171.252732 171.252732 0 0 1 22.194354-42.858851 34.250546 34.250546 0 0 0-19.38581 15.846586z" fill="#EECF92" p-id="18921"></path><path d="M703.87156 317.251394c71.811979 6.621772 112.707131 17.97012 135.198324 27.126432-10.366499-7.192615-46.032734-26.235918-142.847612-36.396914a34.250546 34.250546 0 0 1 7.649288 9.270482zM846.308166 347.506043c13.700219 6.393435 17.97012 11.074343 17.97012 11.074343v-107.980555a173.924274 173.924274 0 0 0-16.965438-8.51697v103.322482a2.671543 2.671543 0 0 1-1.004682 2.1007z" fill="#4EBBBD" p-id="18922"></path><path d="M683.18423 297.797083a37.150426 37.150426 0 0 1 2.625876 3.76756c105.309013 9.841324 144.103465 29.820809 156.159657 38.22361V239.753824c-89.05142-35.186728-172.280248 19.910984-181.664897 26.464256 0.274004 0.411007 0.502341 0.822013 0.753512 1.233019a34.250546 34.250546 0 0 1 22.125852 30.345984z m-4.772242-41.739999c44.411542-20.68733 81.972974-20.550328 105.674352-16.622932 25.779245 4.178567 40.872319 13.197877 41.511662 13.58605a2.671543 2.671543 0 0 1-2.785711 4.56674c-0.593676-0.365339-59.77862-35.072559-142.139767 3.310886a2.671543 2.671543 0 0 1-2.28337-4.863577zM423.38242 276.424742a165.681309 165.681309 0 0 0-31.12233 28.907462 168.307185 168.307185 0 0 0-39.365294 108.368728v51.62699h195.730455l36.693752-36.693752a2.671543 2.671543 0 0 1 3.790394 0l16.371761 16.371761 1.347188-1.347188 17.35361 17.35361h44.388708v-60.440797A166.11515 166.11515 0 0 0 604.362307 269.437631c-47.813763-21.943183-64.824867-24.683227-82.49815-24.683227a167.645007 167.645007 0 0 0-98.481737 31.670338z m207.147304 76.01338a204.270258 204.270258 0 0 1 15.663916 78.18258 2.671543 2.671543 0 0 1-2.671542 2.580208 2.671543 2.671543 0 0 1-2.580208-2.762878 202.831735 202.831735 0 0 0-15.389912-76.08188c-21.897516-52.129331-62.792668-83.548499-121.566606-93.43549a2.671543 2.671543 0 1 1 0.890514-5.297418c75.64804 12.71837 110.081256 59.687285 125.653838 96.837711zM640.051376 476.881773h28.519288v-10.503501h-39.045623l10.526335 10.503501zM633.566606 290.124961c0.685011-0.456674 1.392856-0.890514 2.123534-1.324354q-6.324934-5.754092-13.175044-10.868841l-0.479508-0.228336q6.05093 5.936761 11.531018 12.421531z" fill="#4EBBBD" p-id="18923"></path><path d="M551.616465 469.894662a2.694376 2.694376 0 0 1-1.895197 0.776345h-196.849306v10.503501h216.463453l32.332515-32.401016-14.499398-14.476565zM652.929581 306.97623c-3.653392-4.452571-7.512286-8.699639-11.416849-12.764037l-1.598358-1.552692a31.647505 31.647505 0 0 0-2.831379 1.644027 171.389734 171.389734 0 0 1 29.386969 55.759889 31.716006 31.716006 0 0 0 9.498818-6.096597 167.462338 167.462338 0 0 0-23.039201-36.99059zM668.365161 355.063997a2.53454 2.53454 0 0 1-0.570843 0 171.252732 171.252732 0 0 1 6.142265 45.393391v76.310217h16.988271v-63.066673a167.667841 167.667841 0 0 0-6.850109-47.151585 165.886813 165.886813 0 0 0-6.096598-17.399278 37.150426 37.150426 0 0 1-9.612986 5.913928zM182.509744 336.317531V358.489051s22.628194-25.117067 133.782634-38.497614a36.762253 36.762253 0 0 1 2.580208-12.878205c-76.470053 7.306783-116.497525 20.093654-136.362842 29.204299zM387.396513 266.766088a173.536101 173.536101 0 0 0-17.787451-10.914507 31.670338 31.670338 0 0 0-22.833697 28.359452 36.37408 36.37408 0 0 1 19.636979 1.758195 34.45605 34.45605 0 0 1 20.984169-19.20314z" fill="#4EBBBD" p-id="18924"></path><path d="M362.142443 252.997369c-1.940864-1.255853-4.56674-2.89988-7.786291-4.772243-38.406279-17.53628-105.035009-36.031575-171.823574 2.28337v2.055033c6.279267-3.493556 65.806716-34.250546 146.615172 3.379387a2.671543 2.671543 0 1 1-2.28337 4.863577c-82.361147-38.406279-141.568925-3.676225-142.162601-3.33372a2.648709 2.648709 0 0 1-2.283369 0.228337v72.816662c21.600678-9.521652 62.975338-21.943183 139.285555-29.067297a37.150426 37.150426 0 0 1 19.545645-15.732418 37.013424 37.013424 0 0 1 20.892833-32.720688z" fill="#4EBBBD" p-id="18925"></path><path d="M362.325113 301.199304l1.278687-1.781028a34.410382 34.410382 0 0 1 1.027516-8.357133 31.624671 31.624671 0 0 0-42.950185 28.176782c6.850109-0.776346 13.814387-1.507024 21.235339-2.283369a34.250546 34.250546 0 0 1 19.408643-15.755252z" fill="#4EBBBD" p-id="18926"></path><path d="M333.075146 503.84837h0.137002a2.53454 2.53454 0 0 1 0.388173 0 2.648709 2.648709 0 0 1 0.570843 0 7.055613 7.055613 0 0 1 0.86768 0.548009 2.648709 2.648709 0 0 1 0.342506 0.456674 2.53454 2.53454 0 0 1 0.25117 0.319671l0.274005 0.548009v-35.026892h-2.671543a2.671543 2.671543 0 0 1-2.671543-2.671542v35.985907c0.822013 0 1.66686-0.114168 2.511707-0.137002z" fill="#231F20" p-id="18927"></path><path d="M333.212148 465.327922h2.671543v-64.756366a165.795478 165.795478 0 0 1 7.466619-49.320787 34.09071 34.09071 0 0 1-3.219551-7.192614c-0.525175 1.529858-1.073184 3.036882-1.552692 4.566739 0.867681 0.456674 1.735361 0.867681 2.648709 1.255853a2.671543 2.671543 0 1 1-2.032199 4.954913c-0.730678-0.296838-1.438523-0.639344-2.146368-0.981849a171.252732 171.252732 0 0 0-6.507603 46.694911V468.0908a2.671543 2.671543 0 0 1 2.671542-2.762878zM668.570664 505.903403l0.274004-0.548009a2.53454 2.53454 0 0 1 0.251171-0.319672 2.648709 2.648709 0 0 1 0.342506-0.456674 7.078446 7.078446 0 0 1 0.86768-0.548008 2.648709 2.648709 0 0 1 0.570843-0.114169 2.511707 2.511707 0 0 1 0.388172 0h0.159836c0.844847 0 1.689694 0 2.511707 0.137002v-27.1721h-5.365919zM436.625964 758.078758a2.671543 2.671543 0 0 1 2.671543 2.671543v3.904562a171.047228 171.047228 0 0 0 125.859341 0v-3.904562a2.671543 2.671543 0 0 1 5.365919 0v1.689694a172.074745 172.074745 0 0 0 102.614637-141.112251h-1.872364a2.671543 2.671543 0 1 1 0-5.365919c0.776346 0 1.529858 0 2.28337-0.114169 0.228337-3.653392 0.388173-7.306783 0.388173-11.005842v-95.490523h-1.05035l-4.315569 8.76814v86.768051a166.343487 166.343487 0 1 1-332.686973 0v-86.768051l-4.292735-8.927976h-1.05035v95.673193c0 3.699059 0.159836 7.375284 0.388172 11.005842 0.753512 0 1.507024 0.114168 2.28337 0.114169a2.671543 2.671543 0 0 1 0 5.365919h-1.872363A172.074745 172.074745 0 0 0 433.840253 762.34866v-1.689694a2.671543 2.671543 0 0 1 2.785711-2.580208zM405.480801 265.16773a2.625875 2.625875 0 0 1-1.164519 0.593676h0.525175a165.795478 165.795478 0 0 1 199.52085 3.676225c5.480087 2.511707 11.416849 5.274584 17.650448 8.311466a173.056594 173.056594 0 0 0-15.367079-13.312046c-0.274004 0.274004-0.548009 0.525175-0.799179 0.79918a2.671543 2.671543 0 1 1-3.973063-3.607725l0.43384-0.43384a171.138563 171.138563 0 0 0-198.242162-1.370022c0.525175 0.525175 1.096017 1.027516 1.598359 1.575525a2.671543 2.671543 0 0 1-0.18267 3.767561zM397.87718 265.122062a34.935557 34.935557 0 0 1 4.429737 0.319672 2.580208 2.580208 0 0 1-0.593676-0.43384c-0.662177-0.707845-1.347188-1.392856-2.055033-2.032199-0.959015 0.707845-1.872363 1.48419-2.808545 2.283369z" fill="#231F20" p-id="18928"></path><path d="M404.841457 265.829907h-0.525175a2.625875 2.625875 0 0 1-2.009365-0.319672 34.935557 34.935557 0 0 0-4.429737-0.319672h-1.05035A173.147928 173.147928 0 0 0 372.18927 288.754939c0.639344 0.365339 1.278687 0.753512 1.895197 1.164519a2.671543 2.671543 0 0 1-3.014048 4.452571c-0.776346-0.525175-1.575525-1.004683-2.28337-1.438523q-2.580208 3.196718-5.00058 6.507604l0.319672 1.233019c-0.548009 0.137002-1.073184 0.342505-1.598359 0.502342a171.252732 171.252732 0 0 0-22.285689 42.881684 34.09071 34.09071 0 0 0 3.219552 7.192614 166.98283 166.98283 0 0 1 61.399812-85.420862zM671.310708 466.378272h-2.740044v10.503501h5.365919v-13.197877a2.671543 2.671543 0 0 1-2.625875 2.694376zM668.570664 400.571556v60.440797h2.740044a2.671543 2.671543 0 0 1 2.671542 2.671543v-63.11234a171.252732 171.252732 0 0 0-6.142264-45.393391 2.762877 2.762877 0 0 1-0.456674 0 2.671543 2.671543 0 0 1-1.027517-5.160415A171.389734 171.389734 0 0 0 637.060161 294.326361l-0.411006 0.251171a2.671543 2.671543 0 1 1-2.991214-4.452571q-5.457254-6.48477-11.553851-12.421531c-6.324934-3.036882-12.193194-5.799759-17.650449-8.311466a166.11515 166.11515 0 0 1 64.117023 131.179592z" fill="#231F20" p-id="18929"></path><path d="M363.923471 300.696963l-0.319671-1.23302-1.278687 1.781029c0.548009-0.205503 1.05035-0.411007 1.598358-0.548009zM305.971547 588.69839V536.591892a27.400437 27.400437 0 0 1 24.63756-27.1721v-5.365919A32.697855 32.697855 0 0 0 300.537127 536.591892v52.197833a32.675021 32.675021 0 0 0 30.802658 32.560853c-0.159836-1.781028-0.296838-3.584891-0.411007-5.388753A27.400437 27.400437 0 0 1 305.971547 588.69839zM334.171164 504.03104a2.694376 2.694376 0 0 1 0.456673 0.25117 2.580208 2.580208 0 0 0-0.456673-0.25117zM333.212148 503.84837h-0.137002a2.625875 2.625875 0 0 1 0.525175 0 2.53454 2.53454 0 0 0-0.388173 0zM335.038844 504.624716a2.71721 2.71721 0 0 1 0.342506 0.456674 2.648709 2.648709 0 0 0-0.342506-0.456674z" fill="#231F20" p-id="18930"></path><path d="M335.906525 618.679035a2.671543 2.671543 0 0 0-2.671543-2.671543c-0.776346 0-1.529858 0-2.28337-0.114168 0.114168 1.803862 0.251171 3.607724 0.411007 5.388752h1.872363a2.671543 2.671543 0 0 0 2.671543-2.603041zM331.590956 509.191455l-0.776346-1.575525a2.671543 2.671543 0 0 1 2.28337-3.858895c-0.844847 0-1.689694 0-2.511707 0.137002v5.365919zM698.551309 536.591892v52.197833a27.400437 27.400437 0 0 1-25.117067 27.194934c-0.114168 1.803862-0.251171 3.607724-0.411007 5.388752a32.675021 32.675021 0 0 0 30.779824-32.560852V536.591892a32.675021 32.675021 0 0 0-29.980645-32.515185v5.365919A27.400437 27.400437 0 0 1 698.551309 536.591892zM671.310708 503.84837a2.511707 2.511707 0 0 0-0.388173 0 2.625875 2.625875 0 0 1 0.525175 0zM669.872185 504.28221a2.671543 2.671543 0 0 1 0.43384-0.25117 2.580208 2.580208 0 0 0-0.43384 0.25117z" fill="#231F20" p-id="18931"></path><path d="M672.452393 504.122374a2.671543 2.671543 0 0 1 1.233019 3.584891l-0.776345 1.575525h1.05035v-5.365919c-0.822013 0-1.66686-0.114168-2.511707-0.137002a2.671543 2.671543 0 0 1 1.004683 0.342505zM671.310708 615.984659a2.671543 2.671543 0 1 0 0 5.365919h1.872363c0.159836-1.781028 0.296838-3.584891 0.411007-5.388753-0.799179-0.022834-1.552691 0.022834-2.28337 0.022834zM669.027338 505.035722a2.694376 2.694376 0 0 1 0.342505-0.456674 2.648709 2.648709 0 0 0-0.342505 0.456674zM438.795166 873.75427l0.502341 0.707845v-109.898586c-1.803862-0.707845-3.584891-1.438523-5.365919-2.28337v110.286759h2.671543a2.671543 2.671543 0 0 1 2.192035 1.187352z" fill="#231F20" p-id="18932"></path><path d="M439.297507 760.658966a2.671543 2.671543 0 0 0-5.365919 0v1.689694c1.758195 0.776346 3.562057 1.48419 5.365919 2.28337zM565.156848 874.530616l0.456674-0.685011a2.671543 2.671543 0 0 1 2.28337-1.187352h2.671542v-110.286759c-1.758195 0.776346-3.562057 1.48419-5.365919 2.283369z" fill="#231F20" p-id="18933"></path><path d="M567.851224 758.078758a2.671543 2.671543 0 0 0-2.671542 2.671543v3.904562c1.803862-0.707845 3.584891-1.438523 5.365918-2.283369v-1.689694a2.671543 2.671543 0 0 0-2.694376-2.603042zM566.275699 674.484592l-32.652187 32.652187h-29.249967a2.671543 2.671543 0 1 0 0 5.365919h30.231816a2.694376 2.694376 0 0 0 1.895196-0.776346l33.451367-33.565535a2.671543 2.671543 0 0 0-3.790393-3.790394zM442.448557 543.213665a2.671543 2.671543 0 0 0-2.671542 2.671542v20.230656a20.276323 20.276323 0 0 1-40.552647 0v-20.230656a2.671543 2.671543 0 0 0-5.365919 0v20.230656a25.642242 25.642242 0 0 0 51.261651 0v-20.230656a2.671543 2.671543 0 0 0-2.671543-2.671542zM584.976497 591.758106a25.665076 25.665076 0 0 0 25.619409-25.619409v-20.230656a2.671543 2.671543 0 0 0-5.365919 0v20.230656a20.25349 20.25349 0 1 1-40.529813 0v-20.230656a2.671543 2.671543 0 0 0-5.365919 0v20.230656a25.665076 25.665076 0 0 0 25.642242 25.619409zM251.376176 927.733131c0-43.9092 26.441422-49.297953 28.953129-49.708959h154.926638l7.557953 10.480667h6.621773l-10.138162-13.974223v0.86768a2.671543 2.671543 0 0 1-5.365919 0v-2.671542h-154.150292c-0.342505 0-33.771039 5.069081-33.771039 55.052045V933.898229l5.365919 3.356554zM567.851224 878.001338a2.671543 2.671543 0 0 1-2.671542-2.671543V874.530616l-57.563752 85.078357 3.33372 4.566739 58.317263-86.220041h154.880971a30.871159 30.871159 0 0 1 17.193774 10.480667h2.625875a23.884048 23.884048 0 0 1 4.954913 1.415689 38.314944 38.314944 0 0 0-24.226553-17.239442h-154.173126v2.671543a2.671543 2.671543 0 0 1-2.671543 2.71721z" fill="#231F20" p-id="18934"></path><path d="M504.373545 971.825001a2.694376 2.694376 0 0 0 2.28337-1.187352l4.338402-6.439103-3.33372-4.566739-3.310886 4.886411-54.800874-75.990546h-6.621772l59.367614 82.201312a2.671543 2.671543 0 0 0 2.077866 1.096017zM741.341658 888.482005c6.233599 7.169781 11.759354 19.180306 11.759354 39.251126v21.281006l5.365919-2.991214v-18.266958c0-17.604781-4.155733-29.683807-9.544485-37.812603a23.884048 23.884048 0 0 0-4.954913-1.41569zM436.625964 878.001338a2.671543 2.671543 0 0 0 2.671543-2.671543V874.530616l-0.502341-0.707845a2.671543 2.671543 0 0 0-2.28337-1.118851H433.840253v2.671543a2.671543 2.671543 0 0 0 2.785711 2.625875zM565.636356 873.822771l-0.456674 0.685011v0.822013a2.671543 2.671543 0 0 0 5.365918 0v-2.671542h-2.671542a2.671543 2.671543 0 0 0-2.237702 1.164518zM520.425634 618.679035a2.671543 2.671543 0 0 0-2.671542-2.671543H490.924497a2.671543 2.671543 0 1 0 0 5.365919h26.715426a2.671543 2.671543 0 0 0 2.785711-2.694376zM536.226553 878.001338a2.671543 2.671543 0 0 0 2.671543-2.671543v-79.552602a2.671543 2.671543 0 1 0-5.365919 0v79.552602a2.671543 2.671543 0 0 0 2.694376 2.671543zM335.906525 465.327922h16.988271v5.365919h-16.988271zM621.48758 461.012353l-15.983589-15.983588-3.790393 3.790394 16.782767 16.782768a2.671543 2.671543 0 0 0 1.895197 0.776345h9.133479l-5.365919-5.365919zM624.181956 461.012353l5.343085 5.365919h39.045623v-5.365919h-44.388708z" fill="#231F20" p-id="18935"></path><path d="M589.109397 428.63417a2.671543 2.671543 0 0 0-3.790394 0l-36.693752 36.693752h-195.753289v5.365919h196.849306a2.694376 2.694376 0 0 0 1.895197-0.776346l35.574901-35.5749 14.499398 14.476564 3.790394-3.790394zM333.212148 470.693841h2.671543v-5.365919h-2.671543a2.671543 2.671543 0 1 0 0 5.365919zM671.310708 461.012353h-2.740044v5.365919h2.740044a2.671543 2.671543 0 0 0 0-5.365919zM321.635464 320.607947v-1.370022l-5.388753 0.639344v0.730678a36.899255 36.899255 0 0 0 20.778665 33.268698c0.502341-1.758195 0.981849-3.493556 1.529857-5.228917a31.533336 31.533336 0 0 1-16.919769-28.039781zM372.18927 288.754939a36.739419 36.739419 0 0 0-5.754092-2.762877 34.113544 34.113544 0 0 0-1.712527 5.069081 31.3735 31.3735 0 0 1 3.95023 1.849529c1.073184-1.392856 2.237702-2.785711 3.516389-4.155733z" fill="#231F20" p-id="18936"></path><path d="M353.282968 288.960442a31.670338 31.670338 0 0 1 11.416849 2.100701 34.113544 34.113544 0 0 1 1.712527-5.069081 36.37408 36.37408 0 0 0-19.636979-1.758195v2.055033a2.671543 2.671543 0 1 1-5.365919 0v-0.639344a37.150426 37.150426 0 0 0-19.682648 15.755252l1.324355-0.137003a2.671543 2.671543 0 1 1 0.502341 5.343086l-4.566739 0.43384a36.762253 36.762253 0 0 0-2.580208 12.878205l5.388752-0.639343a31.670338 31.670338 0 0 1 31.487669-30.323151zM340.222093 355.063997a2.671543 2.671543 0 0 0 1.027517-5.160416c-0.913348-0.365339-1.781028-0.799179-2.648709-1.255853-0.548009 1.735361-1.05035 3.470722-1.529858 5.228917 0.707845 0.342505 1.415689 0.685011 2.146368 0.981849a2.671543 2.671543 0 0 0 1.004682 0.205503zM370.979084 294.372029a2.671543 2.671543 0 0 0 3.014048-4.452571c-0.61651-0.411007-1.255853-0.799179-1.895197-1.164519-1.187352 1.370022-2.28337 2.762877-3.493556 4.178567 0.799179 0.43384 1.598359 0.913348 2.374705 1.438523zM369.9059 255.16657a2.603042 2.603042 0 0 1-0.593676 0.548009l0.274004 0.137002a31.419168 31.419168 0 0 1 30.003479 7.10128c1.438523-1.073184 2.945547-2.1007 4.429737-3.15105a36.670918 36.670918 0 0 0-35.780404-9.133479l1.073184 0.753512a2.671543 2.671543 0 0 1 0.593676 3.744726z" fill="#231F20" p-id="18937"></path><path d="M369.609062 255.737412l-0.274004-0.137002a2.648709 2.648709 0 0 1-3.151051 0s-1.48419-1.073184-4.064398-2.740043a37.013424 37.013424 0 0 0-20.869999 32.629353 36.533916 36.533916 0 0 1 5.43442-1.415689A31.670338 31.670338 0 0 1 369.609062 255.737412zM401.713241 264.98506a2.580208 2.580208 0 0 0 0.593676 0.43384c0.685011 0 1.347188 0.205503 2.009365 0.319672a2.625875 2.625875 0 0 0 1.164519-0.593676 2.671543 2.671543 0 0 0 0.18267-3.790394c-0.502341-0.548009-1.05035-1.05035-1.598359-1.575525-1.48419 1.027516-2.968381 2.077866-4.429738 3.15105 0.730678 0.685011 1.415689 1.347188 2.077867 2.055033zM404.316282 265.761406c-0.662177-0.114168-1.324354-0.228337-2.009365-0.319672a2.625875 2.625875 0 0 0 2.009365 0.319672z" fill="#231F20" p-id="18938"></path><path d="M341.24961 286.266066a2.671543 2.671543 0 1 0 5.365919 0v-2.055033a36.533916 36.533916 0 0 0-5.43442 1.41569c0.091335 0.228337 0.068501 0.43384 0.068501 0.639343zM165.589975 339.58275v-100.787941c51.581323-28.907461 103.048477-22.993533 137.253356-12.855372a239.753824 239.753824 0 0 1 51.535655 22.285689c3.15105 1.438523 6.119431 2.877046 8.859475 4.269901a36.693752 36.693752 0 0 1 5.091914-1.826695 233.657227 233.657227 0 0 0-63.774517-29.797976c-35.552067-10.572002-89.211256-16.691433-142.96178 14.065558a2.671543 2.671543 0 0 0-1.347189 2.28337v107.957722a2.671543 2.671543 0 0 0 4.56674 1.803862s4.361236-4.56674 17.627614-10.663337v-5.891094a100.650939 100.650939 0 0 0-16.851268 9.156313z" fill="#231F20" p-id="18939"></path><path d="M363.215627 252.495027c-2.762877-1.392856-5.708424-2.831378-8.859475-4.269901 3.219551 1.872363 5.845427 3.516389 7.786291 4.772243zM321.726798 301.404808c-76.241716 7.124114-117.616376 19.545645-139.285555 29.067297v5.891094c19.842483-9.133479 59.869955-21.92035 136.362842-29.318468a36.830754 36.830754 0 0 1 2.922713-5.639923z" fill="#231F20" p-id="18940"></path><path d="M323.553494 306.565223a2.671543 2.671543 0 1 0-0.502341-5.343085l-1.324355 0.137002a36.830754 36.830754 0 0 0-2.831378 5.662757zM369.357891 255.737412a2.603042 2.603042 0 0 0 0.593677-0.548008 2.671543 2.671543 0 0 0-0.570843-3.744727l-1.073184-0.753512a36.693752 36.693752 0 0 0-5.091914 1.826696q3.265219 1.621193 6.142264 3.219551z" fill="#231F20" p-id="18941"></path><path d="M366.206841 255.737412a2.648709 2.648709 0 0 0 3.15105 0q-2.877046-1.552691-6.142264-3.219551l-1.073184 0.525175c2.580208 1.644026 3.995897 2.694376 4.064398 2.694376zM181.025554 256.468091a2.648709 2.648709 0 0 0 1.48419 1.141685v-5.160416l-0.593676 0.342505a2.671543 2.671543 0 0 0-0.890514 3.676226zM184.701779 257.381439c0.593676-0.365339 59.801454-35.072559 142.162601 3.33372a2.671543 2.671543 0 0 0 2.28337-4.863578c-80.808456-37.675601-140.313071-6.850109-146.615172-3.379387v5.160415a2.648709 2.648709 0 0 0 2.169201-0.25117zM501.74767 257.815279a2.671543 2.671543 0 0 0 2.28337 3.082549c58.751104 9.886991 99.66909 41.306159 121.566605 93.43549a202.831735 202.831735 0 0 1 15.389912 76.081881 2.671543 2.671543 0 0 0 2.580208 2.762877 2.671543 2.671543 0 0 0 2.671543-2.580208 204.270258 204.270258 0 0 0-15.732418-78.159746c-15.572582-37.150426-50.005798-84.096508-125.585336-96.837712a2.694376 2.694376 0 0 0-3.173884 2.214869zM681.563038 303.848013a2.694376 2.694376 0 0 1 2.922713-2.420372h0.137002c-0.548009-0.18267-1.096017-0.388173-1.666859-0.548008l0.319671-1.255854v-1.872363a37.127592 37.127592 0 0 0-16.91977-11.942024v0.639344a2.671543 2.671543 0 1 1-5.365919 0v-2.055033a36.533916 36.533916 0 0 0-25.117067 4.38407q2.1007 1.895197 4.110066 3.858895A31.647505 31.647505 0 0 1 675.877447 343.989653q1.164519 2.557374 2.28337 5.18325a36.922089 36.922089 0 0 0 10.572002-41.945503l-4.56674-0.43384a2.671543 2.671543 0 0 1-2.603041-2.945547z" fill="#231F20" p-id="18942"></path><path d="M683.275565 299.646613l-0.319671 1.255853c0.570842 0.159836 1.118851 0.365339 1.666859 0.548009l1.187353 0.114168a37.150426 37.150426 0 0 0-2.625876-3.76756c0.045667 0.61651 0.091335 1.324354 0.091335 1.84953zM635.69014 288.800607c-0.707845 0.411007-1.415689 0.844847-2.123534 1.324354 1.164519 1.370022 2.28337 2.785711 3.402221 4.2014a31.647505 31.647505 0 0 1 2.831378-1.644026q-2.032199-1.986532-4.110065-3.881728zM666.355795 350.086251c0.525175 1.689694 0.981849 3.379387 1.438523 5.091914a2.53454 2.53454 0 0 0 0.570843 0 37.150426 37.150426 0 0 0 9.727155-5.891094q-1.073184-2.603042-2.28337-5.183249a31.716006 31.716006 0 0 1-9.453151 5.982429z" fill="#231F20" p-id="18943"></path><path d="M633.566606 290.124961a2.671543 2.671543 0 1 0 2.991214 4.452571l0.411007-0.251171c-1.118851-1.415689-2.28337-2.808545-3.402221-4.2014zM666.332962 350.109084a2.671543 2.671543 0 0 0 1.027516 5.160416 2.762877 2.762877 0 0 0 0.456674 0c-0.456674-1.689694-0.936182-3.402221-1.438523-5.091914zM629.273871 254.824065a31.55617 31.55617 0 0 1 23.769879 10.754671 34.250546 34.250546 0 0 1 6.393435 1.370022l0.890514-0.639344a37.218927 37.218927 0 0 0-14.887571-13.106542c-2.580208 1.66686-3.995897 2.694376-4.064398 2.740044a2.671543 2.671543 0 0 1-3.173884-4.315569l1.073184-0.753512a36.739419 36.739419 0 0 0-36.944923 10.297997c1.461357 1.05035 2.922713 2.123534 4.338403 3.219552a31.693172 31.693172 0 0 1 22.605361-9.567319z" fill="#231F20" p-id="18944"></path><path d="M666.264461 285.832226a36.716586 36.716586 0 0 0-5.228917-18.266958c-0.548009-0.205503-1.096017-0.43384-1.644026-0.593676a34.250546 34.250546 0 0 0-6.393436-1.370022 31.464835 31.464835 0 0 1 7.831959 18.8378 36.533916 36.533916 0 0 1 5.43442 1.392856zM660.282032 266.309414l-0.890514 0.639344c0.570842 0.18267 1.096017 0.388173 1.644026 0.593676-0.228337-0.388173-0.479508-0.822013-0.753512-1.23302zM602.078937 265.373233a2.671543 2.671543 0 0 0 3.790394-0.18267c0.251171-0.274004 0.548009-0.525175 0.799179-0.799179-1.438523-1.096017-2.877046-2.28337-4.338403-3.219552l-0.43384 0.433841a2.671543 2.671543 0 0 0 0.18267 3.76756z" fill="#231F20" p-id="18945"></path><path d="M663.615752 289.165946a2.671543 2.671543 0 0 0 2.671542-2.671543v-0.639343a36.533916 36.533916 0 0 0-5.43442-1.41569v2.055033a2.671543 2.671543 0 0 0 2.762878 2.671543zM842.563439 347.209205a2.671543 2.671543 0 0 0 3.653392 0.296838c-2.28337-1.004683-4.56674-2.055033-7.238282-3.15105a26.190251 26.190251 0 0 1 3.58489 2.854212zM704.739241 226.053606c34.250546-10.138162 85.649199-15.983588 137.230522 12.855371v0.844847q2.671543 1.05035 5.365919 2.28337v-4.56674a2.671543 2.671543 0 0 0-1.347188-2.283369c-53.750524-30.756991-107.318378-24.614726-142.938947-14.065558a233.657227 233.657227 0 0 0-63.706016 29.729474 36.670918 36.670918 0 0 1 6.165099 2.28337A236.602774 236.602774 0 0 1 704.739241 226.053606zM696.222272 307.980912a34.113544 34.113544 0 0 0-10.206663-6.073763 36.830754 36.830754 0 0 1 2.625875 5.320251z" fill="#231F20" p-id="18946"></path><path d="M841.969763 339.788253c-12.033359-8.402801-50.850644-28.382286-156.159657-38.22361l0.205503 0.342506a34.113544 34.113544 0 0 1 10.206663 6.073763c96.814878 10.160995 132.435446 29.204299 142.847612 36.396914 2.671543 1.073184 5.069081 2.146368 7.238282 3.151051a2.671543 2.671543 0 0 0 1.004682-2.100701V242.037194q-2.694376-1.164519-5.365919-2.28337zM684.485751 301.404808a2.671543 2.671543 0 1 0-0.502341 5.343085l4.566739 0.43384a36.830754 36.830754 0 0 0-2.625875-5.320251l-1.392855-0.456674z" fill="#231F20" p-id="18947"></path><path d="M686.015609 301.907149l-0.205503-0.342506-1.187353-0.114168zM637.60817 255.372073a2.671543 2.671543 0 0 0 3.744727 0.570843s1.48419-1.073184 4.064398-2.740044a36.670918 36.670918 0 0 0-6.165099-2.28337l-1.073183 0.753512a2.671543 2.671543 0 0 0-0.570843 3.699059zM679.553673 261.148999a2.671543 2.671543 0 0 0 1.141684-0.251171c82.361147-38.383446 141.568925-3.676225 142.139768-3.310886a2.671543 2.671543 0 0 0 2.785711-4.56674c-0.639344-0.388173-15.709584-9.407483-41.511662-13.58605-23.701378-3.836061-61.285644-4.064398-105.674353 16.622932a2.671543 2.671543 0 0 0 1.141685 5.114748zM474.644071 564.380502A55.166213 55.166213 0 1 1 419.477858 509.191455a55.234714 55.234714 0 0 1 55.166213 55.166213A2.671543 2.671543 0 0 1 477.224279 561.70896h2.603041a60.532132 60.532132 0 0 0-120.17375-7.192615l4.269901 8.699639a2.671543 2.671543 0 1 1-4.81791 2.283369l-0.25117-0.525175a60.532132 60.532132 0 0 0 121.018597 2.032199H477.224279a2.671543 2.671543 0 0 1-2.580208-2.625875zM584.976497 503.84837A60.600633 60.600633 0 0 0 524.512866 561.70896h2.603042a2.671543 2.671543 0 0 1 2.671542 2.671542 55.166213 55.166213 0 1 1 55.166214 55.166213A55.234714 55.234714 0 0 1 529.741783 564.380502a2.671543 2.671543 0 0 1-2.671543 2.671543h-2.603041a60.532132 60.532132 0 0 0 121.018597-2.032199l-0.251171 0.525175a2.671543 2.671543 0 0 1-4.81791-2.28337l4.269901-8.699639a60.623467 60.623467 0 0 0-59.710119-50.713642z" fill="#231F20" p-id="18948"></path><path d="M358.945725 564.380502a60.646301 60.646301 0 0 1 0.822013-9.864157l-23.861213-48.590109v12.170361l23.062034 46.968916c0-0.251171-0.022834-0.456674-0.022834-0.685011zM333.600321 503.916871a2.71721 2.71721 0 0 1 0.570843 0 2.648709 2.648709 0 0 0-0.570843 0zM334.605004 504.28221a2.694376 2.694376 0 0 1 0.411006 0.274005 2.580208 2.580208 0 0 0-0.411006-0.274005zM333.052312 503.84837zM335.906525 505.903403l-0.274005-0.548009a2.53454 2.53454 0 0 0-0.25117-0.319672 2.603042 2.603042 0 0 1 0.525175 1.484191z" fill="#231F20" p-id="18949"></path><path d="M333.212148 509.191455h-1.621192l4.315569 8.76814v-11.531017a2.671543 2.671543 0 0 1-2.694377 2.762877z" fill="#231F20" p-id="18950"></path><path d="M335.906525 506.519913a2.603042 2.603042 0 0 0-0.525175-1.484191 1.689694 1.689694 0 0 0-0.776346-0.730678 1.689694 1.689694 0 0 0-1.004683-0.365339 2.625875 2.625875 0 0 0-0.525175 0 2.671543 2.671543 0 0 0-2.28337 3.858895l0.776346 1.575525h1.621193a2.671543 2.671543 0 0 0 2.71721-2.854212zM361.617268 567.052045a2.671543 2.671543 0 0 0 2.397538-3.858895l-4.269901-8.699639a60.646301 60.646301 0 0 0-0.822013 9.864157v0.662178l0.25117 0.525175a2.671543 2.671543 0 0 0 2.443206 1.507024zM524.512866 561.70896h-44.571377v5.343085h44.571377v-2.671543c0-0.890514-0.022834-1.803862 0-2.671542z" fill="#231F20" p-id="18951"></path><path d="M479.941489 561.70896H477.224279a2.671543 2.671543 0 1 0 0 5.365918h2.603041v-2.671542c0-0.890514 0.159836-1.826696 0.114169-2.694376zM529.741783 564.380502a2.671543 2.671543 0 0 0-2.671543-2.671542h-2.603041v5.343085h2.603041a2.671543 2.671543 0 0 0 2.671543-2.671543zM668.570664 505.903403l-23.884048 48.612942a60.646301 60.646301 0 0 1 0.822014 9.864157v0.662177l23.084868-46.968915v-12.170361z" fill="#231F20" p-id="18952"></path><path d="M668.570664 506.519913v11.531017l4.315569-8.76814h-1.621193a2.671543 2.671543 0 0 1-2.694376-2.762877zM670.306025 504.03104a2.71721 2.71721 0 0 1 0.570843-0.114169 2.648709 2.648709 0 0 0-0.570843 0.114169zM669.438345 504.624716a2.694376 2.694376 0 0 1 0.43384-0.296838 2.580208 2.580208 0 0 0-0.43384 0.296838zM671.310708 503.84837zM669.027338 505.035722a2.53454 2.53454 0 0 0-0.251171 0.319672l-0.274004 0.548009v0.61651a2.603042 2.603042 0 0 1 0.525175-1.484191z" fill="#231F20" p-id="18953"></path><path d="M672.452393 504.122374a2.671543 2.671543 0 0 0-1.004683-0.274004 2.625875 2.625875 0 0 0-0.525175 0 2.71721 2.71721 0 0 0-0.570843 0.114168 7.078446 7.078446 0 0 0-0.86768 0.548009 2.694376 2.694376 0 0 0-0.342506 0.456674 2.603042 2.603042 0 0 0-0.525175 1.507024A2.671543 2.671543 0 0 0 671.310708 509.191455h1.621192l0.776346-1.575525a2.671543 2.671543 0 0 0-1.255853-3.493556zM641.626901 566.77804a2.671543 2.671543 0 0 0 3.58489-1.233019l0.251171-0.525175v-0.662178a60.646301 60.646301 0 0 0-0.822013-9.864157l-4.269901 8.699639a2.671543 2.671543 0 0 0 1.255853 3.58489z" fill="#231F20" p-id="18954"></path></svg>