<?xml version="1.0" standalone="no"?><!DOCTYPE svg PUBLIC "-//W3C//DTD SVG 1.1//EN" "http://www.w3.org/Graphics/SVG/1.1/DTD/svg11.dtd"><svg t="1746885368007" class="icon" viewBox="0 0 1024 1024" version="1.1" xmlns="http://www.w3.org/2000/svg" p-id="5104" xmlns:xlink="http://www.w3.org/1999/xlink" width="200" height="200"><path d="M840.15104 638.1568a25.6 25.6 0 1 1 51.2 0v90.68544c0 35.51232-29.06112 64.16384-64.7168 64.16384h-87.4496a25.6 25.6 0 1 1 0-51.2h87.4496c7.55712 0 13.5168-5.89824 13.5168-12.96384V638.1568z m-295.13728 103.6288a25.6 25.6 0 1 1 0 51.2H161.97632c-35.6352 0-64.69632-28.63104-64.69632-64.14336V304.78336c0-35.51232 29.04064-64.14336 64.7168-64.14336h664.65792c35.6352 0 64.69632 28.63104 64.69632 64.14336v134.28736a25.6 25.6 0 0 1-51.2 0v-134.28736a13.23008 13.23008 0 0 0-13.5168-12.94336H161.9968a13.23008 13.23008 0 0 0-13.49632 12.94336v424.05888c0 7.0656 5.95968 12.96384 13.5168 12.96384h383.01696z" fill="#f8b4d5" p-id="5105"></path><path d="M480.80896 622.83776c0-78.7456-63.97952-142.5408-142.88896-142.5408s-142.88896 63.7952-142.88896 142.5408a25.6 25.6 0 0 0 51.2 0c0-50.42176 41.02144-91.3408 91.68896-91.3408s91.68896 40.91904 91.68896 91.3408a25.6 25.6 0 0 0 51.2 0z" fill="#f8b4d5" p-id="5106"></path><path d="M337.92 531.49696a92.52864 92.52864 0 0 0 92.63104-92.42624 92.52864 92.52864 0 0 0-92.63104-92.42624 92.52864 92.52864 0 0 0-92.63104 92.42624 92.52864 92.52864 0 0 0 92.63104 92.42624z m0-51.2a41.32864 41.32864 0 0 1-41.43104-41.22624c0-22.7328 18.5344-41.22624 41.43104-41.22624s41.43104 18.47296 41.43104 41.22624c0 22.75328-18.5344 41.22624-41.43104 41.22624zM122.88 700.53888h371.42528a10.24 10.24 0 0 0 0-20.48H122.88a10.24 10.24 0 1 0 0 20.48zM523.63264 455.68h191.8976a25.6 25.6 0 1 0 0-51.2h-191.8976a25.6 25.6 0 0 0 0 51.2zM523.63264 517.4272h96.54272a10.24 10.24 0 1 0 0-20.48h-96.54272a10.24 10.24 0 1 0 0 20.48zM925.94176 611.65568l-226.7136 226.7136a48.41472 48.41472 0 0 1-68.44416 0l-78.336-78.336a48.41472 48.41472 0 0 1 0-68.44416l226.7136-226.7136a48.37376 48.37376 0 0 1 41.30816-13.66016l28.0576-28.07808a48.41472 48.41472 0 0 1 68.46464 0l50.688 50.688c18.90304 18.90304 18.90304 49.5616 0 68.44416l-28.0576 28.07808a48.37376 48.37376 0 0 1-13.68064 41.30816z m-34.05824-65.98656l37.62176-37.62176-46.73536-46.73536-37.62176 37.62176a25.6 25.6 0 0 1-31.41632 3.76832L590.62272 725.8112l74.38336 74.38336 223.10912-223.10912a25.6 25.6 0 0 1 3.76832-31.41632z" fill="#f8b4d5" p-id="5107"></path><path d="M591.40096 765.25568l31.86688 31.41632a22.81472 22.81472 0 0 1 0 32.48128l-35.92192 35.40992a39.1168 39.1168 0 0 1-27.4432 11.264h-63.36512a19.5584 19.5584 0 0 1-13.86496-33.34144l76.53376-77.06624a22.81472 22.81472 0 0 1 32.19456-0.16384z" fill="#f8b4d5" p-id="5108"></path><path d="M816.29184 508.1088l28.672 26.84928a10.24 10.24 0 1 0 13.98784-14.9504l-28.672-26.8288a10.24 10.24 0 1 0-13.98784 14.9504z" fill="#f8b4d5" p-id="5109"></path></svg>